#!OML:ASF H:\Terrain\Patient Classification 1\Takeo\Monday\TakeoMonday.ASF
:FULLY-SPECIFIED
:DEGREES
226
root 4.71332 17.3107 0.922914 -165.277 79.4721 -159.205
lowerback 5.64349 2.31614 -1.11383
upperback 3.49996 3.14806 -1.84382
thorax 0.486486 1.62642 -1.42851
lowerneck -0.676326 -16.1446 -10.2229
upperneck 2.49346 -21.9267 11.4656
head 3.22548 -10.8488 3.89387
rclavicle 3.68746e-014 -3.18055e-015
rhumerus 43.3006 39.9577 -55.6061
rradius 41.7553
rwrist -4.98757
rhand -38.3563 49.9159
rfingers 7.12502
rthumb -11.3829 20.2448
lclavicle 3.68746e-014 -3.18055e-015
lhumerus -1.10375 -14.8598 85.535
lradius 91.5045
lwrist 22.7258
lhand -30.3203 26.1973
lfingers 7.12502
lthumb -3.62678 56.1462
rfemur -6.16836 -3.85673 15.4475
rtibia 28.2962
rfoot -6.39236 -15.7622
rtoes -36.2866
lfemur -5.47867 2.35785 -10.3065
ltibia 35.4269
lfoot -18.9143 9.96368
ltoes -12.5956
227
root 4.72013 17.295 0.96895 -162.569 79.6878 -156.473
lowerback 5.79272 2.32976 -0.433381
upperback 3.3683 3.18958 -2.05325
thorax 0.317566 1.65807 -2.036
lowerneck -0.64938 -16.2382 -9.64639
upperneck 2.56905 -22.0536 11.2148
head 3.16638 -10.9109 3.74705
rclavicle -2.78299e-015 2.38542e-014
rhumerus 41.4598 38.5058 -57.1108
rradius 41.3552
rwrist -5.04123
rhand -38.2541 49.6272
rfingers 7.12502
rthumb -11.2844 19.9508
lclavicle -2.78299e-015 2.38542e-014
lhumerus -1.27086 -15.9376 84.8653
lradius 91.3718
lwrist 22.8999
lhand -30.3999 25.6295
lfingers 7.12502
lthumb -3.70362 55.5771
rfemur -6.32188 -4.33976 16.1695
rtibia 28.0178
rfoot -4.8634 -15.4728
rtoes -40.0311
lfemur -5.5146 2.35586 -9.6852
ltibia 35.6366
lfoot -19.0992 10.2087
ltoes -12.7583
228
root 4.72612 17.29 1.01721 -158.225 79.9117 -152.111
lowerback 5.80986 2.38024 0.340282
upperback 3.32833 3.29038 -2.10655
thorax 0.316944 1.71875 -2.53005
lowerneck -0.631567 -16.2423 -9.31163
upperneck 2.37559 -22.0534 11.2885
head 3.07846 -10.9097 3.73926
rclavicle -3.88624e-014 7.95139e-015
rhumerus 40.0586 37.1353 -57.8413
rradius 41.018
rwrist -5.53052
rhand -38.8163 50.007
rfingers 7.12502
rthumb -11.8265 20.3609
lclavicle -3.88624e-014 7.95139e-015
lhumerus -1.2504 -16.7503 84.3144
lradius 91.3383
lwrist 23.151
lhand -30.6825 25.523
lfingers 7.12502
lthumb -3.9765 55.4657
rfemur -6.38078 -3.90859 17.0555
rtibia 27.8478
rfoot -5.17377 -15.2166
rtoes -37.8763
lfemur -5.51457 2.62278 -8.75697
ltibia 35.8426
lfoot -19.1483 10.3455
ltoes -12.2049
229
root 4.73902 17.2972 1.06279 -157.255 80.3052 -151.136
lowerback 5.76331 2.25312 0.171268
upperback 3.35309 3.11312 -2.0796
thorax 0.349329 1.62739 -2.39598
lowerneck -0.724526 -16.0307 -9.68574
upperneck 2.29546 -21.7683 11.5852
head 3.11479 -10.7639 3.88506
rclavicle 1.61016e-014 1.59028e-015
rhumerus 39.4592 36.5842 -57.4618
rradius 40.9871
rwrist -6.45202
rhand -39.0786 49.5732
rfingers 7.12502
rthumb -12.0795 19.9419
lclavicle 1.61016e-014 1.59028e-015
lhumerus -1.39323 -16.7881 83.9751
lradius 91.3127
lwrist 23.1772
lhand -30.6669 25.0734
lfingers 7.12502
lthumb -3.96149 55.0163
rfemur -6.42251 -3.12079 17.0896
rtibia 28.1447
rfoot -7.0031 -14.9068
rtoes -32.1175
lfemur -5.26528 2.74545 -8.62405
ltibia 35.7143
lfoot -19.1954 10.5974
ltoes -11.321
230
root 4.75408 17.3096 1.10516 -157.698 80.6451 -151.621
lowerback 5.68867 2.0913 -0.127102
upperback 3.3474 2.88422 -2.14767
thorax 0.363875 1.50924 -2.28443
lowerneck -0.942586 -15.8808 -9.83397
upperneck 2.42004 -21.5561 11.541
head 3.17548 -10.6515 3.88693
rclavicle -2.18663e-015 -1.43125e-014
rhumerus 38.7911 35.9936 -57.006
rradius 41.1295
rwrist -7.5737
rhand -38.961 47.8794
rfingers 7.12502
rthumb -11.966 18.2414
lclavicle -2.18663e-015 -1.43125e-014
lhumerus -1.58104 -16.9867 83.4781
lradius 91.4257
lwrist 23.4556
lhand -30.6799 24.7997
lfingers 7.12502
lthumb -3.97405 54.7424
rfemur -6.46482 -2.39654 16.8072
rtibia 28.6419
rfoot -9.52286 -14.0646
rtoes -23.2965
lfemur -5.02476 2.90368 -8.73948
ltibia 35.4134
lfoot -19.1688 10.8895
ltoes -12.1605
